<?xml version="1.0" encoding="UTF-8"?>
<svg xmlns="http://www.w3.org/2000/svg" width="1220" height="392" viewBox="0 0 1220 392" role="img">
<defs><marker id="arrow" markerWidth="9" markerHeight="7" refX="8" refY="3.5" orient="auto"><path d="M0,0 L9,3.5 L0,7 Z" fill="#111"/></marker></defs>
<rect width="100%" height="100%" fill="white"/>
<style>text { font-family: Arial, &quot;Microsoft YaHei&quot;, sans-serif; fill: #151515; } .label { font-size: 16px; font-weight: 600; } .event { font-size: 14px; } .small { font-size: 12px; } .sync { stroke: #202020; stroke-width: 1.5; stroke-dasharray: 7 6; }</style>
<text x="205" y="29" class="label">FlashMLA dense BF16 decode: WG0 steady async issue order</text>
<rect x="475" y="15" width="14" height="14" rx="2" fill="#c9e6f5" stroke="#222"/>
<text x="495" y="27" class="small">data movement</text>
<rect x="645" y="15" width="14" height="14" rx="2" fill="#f4c7c3" stroke="#222"/>
<text x="665" y="27" class="small">tensor/core compute</text>
<rect x="815" y="15" width="14" height="14" rx="2" fill="#d8e8c6" stroke="#222"/>
<text x="835" y="27" class="small">vector / reduction / epilogue</text>
<rect x="985" y="15" width="14" height="14" rx="2" fill="#f7deb5" stroke="#222"/>
<text x="1005" y="27" class="small">other work</text>
<line x1="391.7" y1="47" x2="391.7" y2="299" class="sync"/>
<text x="396.7" y="60" class="small">K tile0 ready (mbarrier)</text>
<line x1="658.3" y1="47" x2="658.3" y2="299" class="sync"/>
<text x="663.3" y="60" class="small">after QK 0..3: wait_group&lt;4&gt;</text>
<line x1="711.7" y1="47" x2="711.7" y2="299" class="sync"/>
<text x="716.7" y="60" class="small">K tile4 ready (mbarrier)</text>
<line x1="1111.7" y1="47" x2="1111.7" y2="299" class="sync"/>
<text x="1116.7" y="60" class="small">all QK issued / wait_group&lt;0&gt;</text>
<text x="190" y="97" text-anchor="end" class="label">TMA next-even K</text>
<line x1="205" y1="104" x2="1165" y2="104" stroke="#dedede"/>
<rect x="205.0" y="72" width="373.3" height="48" rx="2" fill="#c9e6f5" stroke="#222" stroke-width="1.2"/>
<text x="391.7" y="101" text-anchor="middle" class="event">K[i+1] tiles 0..3</text>
<rect x="685.0" y="72" width="426.7" height="48" rx="2" fill="#c9e6f5" stroke="#222" stroke-width="1.2"/>
<text x="898.3" y="101" text-anchor="middle" class="event">K[i+1] tiles 4..8</text>
<text x="190" y="171" text-anchor="end" class="label">WG0 WGMMA issue</text>
<line x1="205" y1="178" x2="1165" y2="178" stroke="#dedede"/>
<rect x="311.7" y="146" width="80.0" height="48" rx="2" fill="#f4c7c3" stroke="#222" stroke-width="1.2"/>
<text x="351.7" y="175" text-anchor="middle" class="event">PV-remote[i] commit</text>
<rect x="391.7" y="146" width="266.7" height="48" rx="2" fill="#f4c7c3" stroke="#222" stroke-width="1.2"/>
<text x="525.0" y="175" text-anchor="middle" class="event">QK tiles 0..3[i+1]</text>
<rect x="711.7" y="146" width="400.0" height="48" rx="2" fill="#f4c7c3" stroke="#222" stroke-width="1.2"/>
<text x="911.7" y="175" text-anchor="middle" class="event">QK tiles 4..8[i+1]</text>
<text x="190" y="245" text-anchor="end" class="label">WG0 vector/control</text>
<line x1="205" y1="252" x2="1165" y2="252" stroke="#dedede"/>
<rect x="205.0" y="220" width="106.7" height="48" rx="2" fill="#d8e8c6" stroke="#222" stroke-width="1.2"/>
<text x="258.3" y="249" text-anchor="middle" class="event">rescale O[i]</text>
<rect x="658.3" y="220" width="53.3" height="48" rx="2" fill="#f7deb5" stroke="#222" stroke-width="1.2"/>
<text x="685.0" y="249" text-anchor="middle" class="event">wait4 / launch peer-half TMA</text>
<rect x="1111.7" y="220" width="53.3" height="48" rx="2" fill="#f7deb5" stroke="#222" stroke-width="1.2"/>
<text x="1138.3" y="249" text-anchor="middle" class="event">wait_group&lt;0&gt;</text>
<line x1="205" y1="309" x2="1177" y2="309" stroke="#111" stroke-width="1.5" marker-end="url(#arrow)"/>
<text x="685.0" y="340" text-anchor="middle" class="label">logical issue / outstanding window (not measured cycles)</text>
</svg>
