<?xml version="1.0" encoding="UTF-8"?>
<svg xmlns="http://www.w3.org/2000/svg" width="1220" height="466" viewBox="0 0 1220 466" role="img">
<defs><marker id="arrow" markerWidth="9" markerHeight="7" refX="8" refY="3.5" orient="auto"><path d="M0,0 L9,3.5 L0,7 Z" fill="#111"/></marker></defs>
<rect width="100%" height="100%" fill="white"/>
<style>text { font-family: Arial, &quot;Microsoft YaHei&quot;, sans-serif; fill: #151515; } .label { font-size: 16px; font-weight: 600; } .event { font-size: 14px; } .small { font-size: 12px; } .sync { stroke: #202020; stroke-width: 1.5; stroke-dasharray: 7 6; }</style>
<text x="205" y="29" class="label">FlashMLA dense BF16 decode: source-level page-pair schedule</text>
<rect x="475" y="15" width="14" height="14" rx="2" fill="#c9e6f5" stroke="#222"/>
<text x="495" y="27" class="small">data movement</text>
<rect x="645" y="15" width="14" height="14" rx="2" fill="#f4c7c3" stroke="#222"/>
<text x="665" y="27" class="small">tensor/core compute</text>
<rect x="815" y="15" width="14" height="14" rx="2" fill="#d8e8c6" stroke="#222"/>
<text x="835" y="27" class="small">vector / reduction / epilogue</text>
<rect x="985" y="15" width="14" height="14" rx="2" fill="#f7deb5" stroke="#222"/>
<text x="1005" y="27" class="small">other work</text>
<line x1="319.3" y1="47" x2="319.3" y2="373" class="sync"/>
<text x="324.3" y="60" class="small">sScale0Ready</text>
<line x1="502.1" y1="47" x2="502.1" y2="373" class="sync"/>
<text x="507.1" y="60" class="small">local PV wait0 + sScale1Ready</text>
<line x1="593.6" y1="47" x2="593.6" y2="373" class="sync"/>
<text x="598.6" y="60" class="small">sP0Ready</text>
<line x1="639.3" y1="47" x2="639.3" y2="373" class="sync"/>
<text x="644.3" y="60" class="small">remote even-P issued</text>
<line x1="890.7" y1="47" x2="890.7" y2="373" class="sync"/>
<text x="895.7" y="60" class="small">WG0 wait_group&lt;4&gt;</text>
<line x1="1165.0" y1="47" x2="1165.0" y2="373" class="sync"/>
<text x="1170.0" y="60" class="small">QK wait_group&lt;0&gt;</text>
<text x="190" y="97" text-anchor="end" class="label">WG0 even / O-left</text>
<line x1="205" y1="104" x2="1165" y2="104" stroke="#dedede"/>
<rect x="205.0" y="72" width="114.3" height="48" rx="2" fill="#d8e8c6" stroke="#222" stroke-width="1.2"/>
<text x="262.1" y="101" text-anchor="middle" class="event">softmax even[i]</text>
<rect x="319.3" y="72" width="182.9" height="48" rx="2" fill="#f4c7c3" stroke="#222" stroke-width="1.2"/>
<text x="410.7" y="101" text-anchor="middle" class="event">PV-local even[i] + wait0</text>
<rect x="502.1" y="72" width="91.4" height="48" rx="2" fill="#d8e8c6" stroke="#222" stroke-width="1.2"/>
<text x="547.9" y="101" text-anchor="middle" class="event">rescale + STSM P-even[i]</text>
<rect x="639.3" y="72" width="68.6" height="48" rx="2" fill="#f4c7c3" stroke="#222" stroke-width="1.2"/>
<text x="673.6" y="101" text-anchor="middle" class="event">rescale O + issue PV-remote odd[i]</text>
<rect x="707.9" y="72" width="182.9" height="48" rx="2" fill="#f4c7c3" stroke="#222" stroke-width="1.2"/>
<text x="799.3" y="101" text-anchor="middle" class="event">QK even[i+1] tiles 0..3</text>
<rect x="890.7" y="72" width="274.3" height="48" rx="2" fill="#f4c7c3" stroke="#222" stroke-width="1.2"/>
<text x="1027.9" y="101" text-anchor="middle" class="event">QK even[i+1] tiles 4..8</text>
<text x="190" y="171" text-anchor="end" class="label">WG1 odd / O-right</text>
<line x1="205" y1="178" x2="1165" y2="178" stroke="#dedede"/>
<rect x="319.3" y="146" width="137.1" height="48" rx="2" fill="#d8e8c6" stroke="#222" stroke-width="1.2"/>
<text x="387.9" y="175" text-anchor="middle" class="event">softmax odd[i]</text>
<rect x="456.4" y="146" width="68.6" height="48" rx="2" fill="#c9e6f5" stroke="#222" stroke-width="1.2"/>
<text x="490.7" y="175" text-anchor="middle" class="event">STSM P-odd[i]</text>
<rect x="525.0" y="146" width="137.1" height="48" rx="2" fill="#f4c7c3" stroke="#222" stroke-width="1.2"/>
<text x="593.6" y="175" text-anchor="middle" class="event">issue PV-local odd[i]</text>
<rect x="593.6" y="146" width="45.7" height="48" rx="2" fill="#f4c7c3" stroke="#222" stroke-width="1.2"/>
<text x="616.4" y="175" text-anchor="middle" class="event">issue PV-remote even[i]</text>
<rect x="776.4" y="146" width="388.6" height="48" rx="2" fill="#f4c7c3" stroke="#222" stroke-width="1.2"/>
<text x="970.7" y="175" text-anchor="middle" class="event">QK odd[i+1] per-tile waits</text>
<text x="190" y="245" text-anchor="end" class="label">TMA issued by WG0</text>
<line x1="205" y1="252" x2="1165" y2="252" stroke="#dedede"/>
<rect x="502.1" y="220" width="91.4" height="48" rx="2" fill="#c9e6f5" stroke="#222" stroke-width="1.2"/>
<text x="547.9" y="249" text-anchor="middle" class="event">next-even K[0..3]</text>
<rect x="890.7" y="220" width="91.4" height="48" rx="2" fill="#c9e6f5" stroke="#222" stroke-width="1.2"/>
<text x="936.4" y="249" text-anchor="middle" class="event">next-odd K[0..3]</text>
<text x="190" y="319" text-anchor="end" class="label">TMA issued by WG1</text>
<line x1="205" y1="326" x2="1165" y2="326" stroke="#dedede"/>
<rect x="662.1" y="294" width="91.4" height="48" rx="2" fill="#c9e6f5" stroke="#222" stroke-width="1.2"/>
<text x="707.9" y="323" text-anchor="middle" class="event">next-odd K[4..8]</text>
<rect x="753.6" y="294" width="91.4" height="48" rx="2" fill="#c9e6f5" stroke="#222" stroke-width="1.2"/>
<text x="799.3" y="323" text-anchor="middle" class="event">next-even K[4..8]</text>
<line x1="205" y1="383" x2="1177" y2="383" stroke="#111" stroke-width="1.5" marker-end="url(#arrow)"/>
<text x="685.0" y="414" text-anchor="middle" class="label">logical order / outstanding window (not measured cycles)</text>
</svg>
